<svg xmlns="http://www.w3.org/2000/svg" viewBox="0 0 165 22" class="header_logoImg__VgXbN"><path fill="current" d="M71.343 0c-6.14 0-11.14 4.934-11.14 11 0 6.067 4.996 11 11.14 11 6.143 0 11.139-4.933 11.139-11 0-6.066-4.996-11-11.14-11m6.302 11c0 3.432-2.827 6.223-6.302 6.223-3.476 0-6.3-2.791-6.3-6.223s2.827-6.223 6.3-6.223S77.645 7.568 77.645 11M30.011.64H26.47a.643.643 0 0 0-.646.639v11.888s0 .011-.008.014q-.013.003-.017-.003L13.458.998a1.23 1.23 0 0 0-.874-.357H10.32a.643.643 0 0 0-.646.638V20.72c0 .352.29.638.646.638h3.545a.643.643 0 0 0 .646-.638V8.797l12.334 12.18c.25.247.585.385.939.385h2.225a.643.643 0 0 0 .646-.638V1.279a.643.643 0 0 0-.646-.638M55.768.64h-3.542a.643.643 0 0 0-.646.639v11.888s0 .011-.009.014c-.011.003-.014 0-.017-.003L39.215.998a1.23 1.23 0 0 0-.874-.357h-2.264a.643.643 0 0 0-.646.638V20.72c0 .352.29.638.646.638h3.545a.643.643 0 0 0 .646-.638V8.795l12.334 12.18c.25.247.584.384.938.384h2.222a.643.643 0 0 0 .646-.638V1.28a.643.643 0 0 0-.646-.638M4.191.64H.646A.643.643 0 0 0 0 1.28v15.466c0 .349.14.679.39.927l3.731 3.685a.42.42 0 0 0 .457.088.41.41 0 0 0 .26-.383V1.28A.643.643 0 0 0 4.19.64M138.534.64h-3.543a.643.643 0 0 0-.646.639v15.466c0 .349.139.679.39.927l3.732 3.685a.42.42 0 0 0 .456.088.41.41 0 0 0 .259-.383V1.28a.64.64 0 0 0-.646-.638M105.76 8.82h-8.633a.813.813 0 0 0-.816.808v2.521c0 .446.367.809.816.809h4.653c.117.005.117.085.117.121v1.001a1.22 1.22 0 0 1-.259.71c-1.534 1.969-4.01 2.835-6.458 2.26-2.367-.556-4.252-2.516-4.69-4.879a6.18 6.18 0 0 1 1.967-5.78c1.635-1.46 3.907-1.964 6.082-1.348.796.226 1.595.795 2.3 1.296l.228.162c.279.195.549.176.78-.058l2.573-2.599a.55.55 0 0 0 .156-.385.5.5 0 0 0-.164-.37A11.32 11.32 0 0 0 96.339.004C93.55.088 90.9 1.224 88.876 3.201s-3.203 4.581-3.32 7.334c-.128 3.025.972 5.893 3.094 8.077a11.1 11.1 0 0 0 8.037 3.39c4.171 0 7.962-2.282 9.886-5.956l.005-.014c.12-.288.154-.558.159-.74V9.777a.963.963 0 0 0-.977-.954M130.558 20.334l-7.031-6.944h.342a6.52 6.52 0 0 0 4.715-2.024 6.5 6.5 0 0 0 .972-1.328 6.2 6.2 0 0 0 .754-3.457c-.225-3.33-3.152-5.94-6.661-5.94h-11.894a.643.643 0 0 0-.646.638V20.72c0 .352.29.638.646.638h3.545a.643.643 0 0 0 .647-.638V13.6a.21.21 0 0 1 .211-.21h1.05c.111 0 .22.045.298.122l7.708 7.612a.82.82 0 0 0 .579.236h4.339q.143 0 .265-.058a.6.6 0 0 0 .3-.313.583.583 0 0 0-.13-.654m-6.795-14.916q.163 0 .323.027c.735.132 1.32.699 1.392 1.4.05.484-.114.949-.465 1.295-.315.313-.755.47-1.2.47h-7.747a.12.12 0 0 1-.12-.118V5.533c0-.066.053-.118.12-.118h7.697zM164.986 10.478c-.134-2.673-1.334-5.162-3.381-7.01a11.01 11.01 0 0 0-7.396-2.83h-9.546a.64.64 0 0 0-.646.638v19.443c0 .351.289.637.646.637h9.844c2.896 0 5.595-1.144 7.597-3.222 2.002-2.077 3.024-4.796 2.882-7.66m-9.838 6.048q-.114.016-.232.027-.024 0-.05.006l-.22.017-.061.002q-.142.008-.284.006h-5.327a.12.12 0 0 1-.12-.118V5.536c0-.066.053-.118.12-.118h5.533q.148 0 .295.008.087.004.173.013.058.004.12.011.115.014.231.03l.055.009q.13.021.262.047.011-.001.023.005.137.03.275.066h.003q.418.108.81.278h.006q.125.054.248.115l.016.009q.115.057.229.118l.033.02q.104.058.204.12l.052.033q.092.057.179.119l.072.049q.079.054.153.113.045.033.089.068.068.054.131.108l.1.088q.058.051.115.102.055.05.105.101l.104.102q.055.054.105.113l.092.101.109.13.081.099q.053.066.103.137l.075.102.092.135.075.115q.036.059.072.121.041.067.078.135.029.05.053.099.047.081.084.162.015.032.03.069.047.099.092.2l.009.023c.278.67.42 1.391.417 2.134v.082q-.002.082-.008.165 0 .071-.008.138-.005.066-.014.132-.008.068-.014.143c-.312 2.497-2.367 4.471-4.946 4.84l-.025.003"></path></svg>